<svg xmlns="http://www.w3.org/2000/svg" width="600" height="400"><path d="M284,224L286,262L339,209Z" fill="rgb(163,32,225)" stroke="rgb(163,32,225)" stroke-width="1.51"/><path d="M362,301L386,220L339,209Z" fill="rgb(153,32,225)" stroke="rgb(153,32,225)" stroke-width="1.51"/><path d="M286,262L362,301L339,209Z" fill="rgb(154,32,225)" stroke="rgb(154,32,225)" stroke-width="1.51"/><path d="M339,209L339,145L284,224Z" fill="rgb(169,33,224)" stroke="rgb(169,33,224)" stroke-width="1.51"/><path d="M386,220L339,145L339,209Z" fill="rgb(164,33,225)" stroke="rgb(164,33,225)" stroke-width="1.51"/><path d="M362,301L424,268L386,220Z" fill="rgb(144,32,225)" stroke="rgb(144,32,225)" stroke-width="1.51"/><path d="M386,220L391,101L339,145Z" fill="rgb(169,33,224)" stroke="rgb(169,33,224)" stroke-width="1.51"/><path d="M284,224L206,272L286,262Z" fill="rgb(164,33,224)" stroke="rgb(164,33,224)" stroke-width="1.51"/><path d="M268,372L348,369L362,301Z" fill="rgb(135,31,226)" stroke="rgb(135,31,226)" stroke-width="1.51"/><path d="M201,215L206,272L284,224Z" fill="rgb(172,33,224)" stroke="rgb(172,33,224)" stroke-width="1.51"/><path d="M215,124L201,215L284,224Z" fill="rgb(181,34,223)" stroke="rgb(181,34,223)" stroke-width="1.51"/><path d="M339,145L280,124L284,224Z" fill="rgb(176,34,224)" stroke="rgb(176,34,224)" stroke-width="1.51"/><path d="M348,369L417,327L362,301Z" fill="rgb(131,31,226)" stroke="rgb(131,31,226)" stroke-width="1.51"/><path d="M362,301L417,327L424,268Z" fill="rgb(134,31,226)" stroke="rgb(134,31,226)" stroke-width="1.51"/><path d="M268,372L362,301L286,262Z" fill="rgb(146,32,226)" stroke="rgb(146,32,226)" stroke-width="1.51"/><path d="M206,272L268,372L286,262Z" fill="rgb(155,32,225)" stroke="rgb(155,32,225)" stroke-width="1.51"/><path d="M280,124L215,124L284,224Z" fill="rgb(183,34,223)" stroke="rgb(183,34,223)" stroke-width="1.51"/><path d="M334,37L278,43L280,124Z" fill="rgb(195,36,222)" stroke="rgb(195,36,222)" stroke-width="1.51"/><path d="M280,124L278,43L215,124Z" fill="rgb(195,36,222)" stroke="rgb(195,36,222)" stroke-width="1.51"/><path d="M502,178L391,101L386,220Z" fill="rgb(160,33,225)" stroke="rgb(160,33,225)" stroke-width="1.51"/><path d="M424,268L502,178L386,220Z" fill="rgb(146,32,225)" stroke="rgb(146,32,225)" stroke-width="1.51"/><path d="M417,327L482,282L424,268Z" fill="rgb(130,31,226)" stroke="rgb(130,31,226)" stroke-width="1.51"/><path d="M268,372L272,411L348,369Z" fill="rgb(131,31,227)" stroke="rgb(131,31,227)" stroke-width="1.51"/><path d="M161,414L272,411L268,372Z" fill="rgb(137,31,226)" stroke="rgb(137,31,226)" stroke-width="1.51"/><path d="M206,272L169,361L268,372Z" fill="rgb(153,32,225)" stroke="rgb(153,32,225)" stroke-width="1.51"/><path d="M102,267L169,361L206,272Z" fill="rgb(168,33,224)" stroke="rgb(168,33,224)" stroke-width="1.51"/><path d="M102,267L206,272L201,215Z" fill="rgb(176,34,223)" stroke="rgb(176,34,223)" stroke-width="1.51"/><path d="M482,282L502,178L424,268Z" fill="rgb(137,31,226)" stroke="rgb(137,31,226)" stroke-width="1.51"/><path d="M348,369L422,450L417,327Z" fill="rgb(115,31,228)" stroke="rgb(115,31,228)" stroke-width="1.51"/><path d="M417,327L512,338L482,282Z" fill="rgb(120,31,227)" stroke="rgb(120,31,227)" stroke-width="1.51"/><path d="M272,411L340,442L348,369Z" fill="rgb(123,31,227)" stroke="rgb(123,31,227)" stroke-width="1.51"/><path d="M334,37L280,124L339,145Z" fill="rgb(186,35,223)" stroke="rgb(186,35,223)" stroke-width="1.51"/><path d="M420,32L334,37L391,101Z" fill="rgb(186,35,223)" stroke="rgb(186,35,223)" stroke-width="1.51"/><path d="M391,101L334,37L339,145Z" fill="rgb(183,34,223)" stroke="rgb(183,34,223)" stroke-width="1.51"/><path d="M482,282L585,216L502,178Z" fill="rgb(133,31,226)" stroke="rgb(133,31,226)" stroke-width="1.51"/><path d="M484,427L512,338L417,327Z" fill="rgb(106,31,228)" stroke="rgb(106,31,228)" stroke-width="1.51"/><path d="M96,190L102,267L201,215Z" fill="rgb(186,35,223)" stroke="rgb(186,35,223)" stroke-width="1.51"/><path d="M96,190L201,215L215,124Z" fill="rgb(191,35,222)" stroke="rgb(191,35,222)" stroke-width="1.51"/><path d="M278,43L196,53L215,124Z" fill="rgb(203,37,221)" stroke="rgb(203,37,221)" stroke-width="1.51"/><path d="M502,178L511,123L391,101Z" fill="rgb(160,33,225)" stroke="rgb(160,33,225)" stroke-width="1.51"/><path d="M548,112L511,123L502,178Z" fill="rgb(152,32,225)" stroke="rgb(152,32,225)" stroke-width="1.51"/><path d="M98,121L96,190L215,124Z" fill="rgb(201,36,222)" stroke="rgb(201,36,222)" stroke-width="1.51"/><path d="M464,27L420,32L391,101Z" fill="rgb(182,34,223)" stroke="rgb(182,34,223)" stroke-width="1.51"/><path d="M340,442L422,450L348,369Z" fill="rgb(114,31,227)" stroke="rgb(114,31,227)" stroke-width="1.51"/><path d="M169,361L161,414L268,372Z" fill="rgb(146,32,226)" stroke="rgb(146,32,226)" stroke-width="1.51"/><path d="M272,411L276,498L340,442Z" fill="rgb(127,31,227)" stroke="rgb(127,31,227)" stroke-width="1.51"/><path d="M107,348L161,414L169,361Z" fill="rgb(155,32,225)" stroke="rgb(155,32,225)" stroke-width="1.51"/><path d="M102,267L107,348L169,361Z" fill="rgb(168,33,224)" stroke="rgb(168,33,224)" stroke-width="1.51"/><path d="M87,403L107,348L50,338Z" fill="rgb(166,33,224)" stroke="rgb(166,33,224)" stroke-width="1.51"/><path d="M512,338L568,299L482,282Z" fill="rgb(112,31,228)" stroke="rgb(112,31,228)" stroke-width="1.51"/><path d="M484,427L537,345L512,338Z" fill="rgb(96,31,228)" stroke="rgb(96,31,228)" stroke-width="1.51"/><path d="M422,450L484,427L417,327Z" fill="rgb(101,31,228)" stroke="rgb(101,31,228)" stroke-width="1.51"/><path d="M196,53L98,121L215,124Z" fill="rgb(205,37,221)" stroke="rgb(205,37,221)" stroke-width="1.51"/><path d="M612,281L568,299L612,360Z" fill="rgb(97,31,228)" stroke="rgb(97,31,228)" stroke-width="1.51"/><path d="M537,345L568,299L512,338Z" fill="rgb(103,31,228)" stroke="rgb(103,31,228)" stroke-width="1.51"/><path d="M393,-33L315,-29L334,37Z" fill="rgb(202,37,222)" stroke="rgb(202,37,222)" stroke-width="1.51"/><path d="M511,123L464,27L391,101Z" fill="rgb(172,34,224)" stroke="rgb(172,34,224)" stroke-width="1.51"/><path d="M161,414L276,498L272,411Z" fill="rgb(136,31,226)" stroke="rgb(136,31,226)" stroke-width="1.51"/><path d="M340,442L361,513L422,450Z" fill="rgb(114,31,227)" stroke="rgb(114,31,227)" stroke-width="1.51"/><path d="M511,123L569,70L464,27Z" fill="rgb(167,33,224)" stroke="rgb(167,33,224)" stroke-width="1.51"/><path d="M585,216L548,112L502,178Z" fill="rgb(142,31,226)" stroke="rgb(142,31,226)" stroke-width="1.51"/><path d="M568,299L585,216L482,282Z" fill="rgb(119,31,227)" stroke="rgb(119,31,227)" stroke-width="1.51"/><path d="M278,43L205,-9L196,53Z" fill="rgb(211,38,221)" stroke="rgb(211,38,221)" stroke-width="1.51"/><path d="M334,37L315,-29L278,43Z" fill="rgb(203,37,222)" stroke="rgb(203,37,222)" stroke-width="1.51"/><path d="M393,-33L334,37L420,32Z" fill="rgb(195,36,222)" stroke="rgb(195,36,222)" stroke-width="1.51"/><path d="M196,53L107,40L98,121Z" fill="rgb(214,38,221)" stroke="rgb(214,38,221)" stroke-width="1.51"/><path d="M262,-42L205,-9L278,43Z" fill="rgb(213,39,221)" stroke="rgb(213,39,221)" stroke-width="1.51"/><path d="M422,450L501,483L484,427Z" fill="rgb(96,31,228)" stroke="rgb(96,31,228)" stroke-width="1.51"/><path d="M276,498L361,513L340,442Z" fill="rgb(122,31,227)" stroke="rgb(122,31,227)" stroke-width="1.51"/><path d="M161,414L177,526L276,498Z" fill="rgb(141,32,226)" stroke="rgb(141,32,226)" stroke-width="1.51"/><path d="M107,348L87,403L161,414Z" fill="rgb(156,32,225)" stroke="rgb(156,32,225)" stroke-width="1.51"/><path d="M50,338L107,348L102,267Z" fill="rgb(174,34,224)" stroke="rgb(174,34,224)" stroke-width="1.51"/><path d="M37,273L102,267L33,200Z" fill="rgb(192,35,222)" stroke="rgb(192,35,222)" stroke-width="1.51"/><path d="M33,200L102,267L96,190Z" fill="rgb(194,36,222)" stroke="rgb(194,36,222)" stroke-width="1.51"/><path d="M471,-17L393,-33L420,32Z" fill="rgb(191,35,222)" stroke="rgb(191,35,222)" stroke-width="1.51"/><path d="M37,273L50,338L102,267Z" fill="rgb(183,34,223)" stroke="rgb(183,34,223)" stroke-width="1.51"/><path d="M51,130L33,200L96,190Z" fill="rgb(205,37,221)" stroke="rgb(205,37,221)" stroke-width="1.51"/><path d="M315,-29L262,-42L278,43Z" fill="rgb(209,38,221)" stroke="rgb(209,38,221)" stroke-width="1.51"/><path d="M282,-121L262,-42L315,-29Z" fill="rgb(209,38,221)" stroke="rgb(209,38,221)" stroke-width="1.51"/><path d="M98,121L51,130L96,190Z" fill="rgb(207,37,221)" stroke="rgb(207,37,221)" stroke-width="1.51"/><path d="M58,28L51,130L98,121Z" fill="rgb(218,39,220)" stroke="rgb(218,39,220)" stroke-width="1.51"/><path d="M115,-14L107,40L196,53Z" fill="rgb(222,40,220)" stroke="rgb(222,40,220)" stroke-width="1.51"/><path d="M115,-14L196,53L205,-9Z" fill="rgb(221,40,220)" stroke="rgb(221,40,220)" stroke-width="1.51"/><path d="M611,137L569,70L548,112Z" fill="rgb(151,32,225)" stroke="rgb(151,32,225)" stroke-width="1.51"/><path d="M568,299L612,281L585,216Z" fill="rgb(112,31,228)" stroke="rgb(112,31,228)" stroke-width="1.51"/><path d="M612,360L568,299L537,345Z" fill="rgb(95,31,228)" stroke="rgb(95,31,228)" stroke-width="1.51"/><path d="M560,-43L471,-17L464,27Z" fill="rgb(183,35,223)" stroke="rgb(183,35,223)" stroke-width="1.51"/><path d="M464,27L471,-17L420,32Z" fill="rgb(186,35,222)" stroke="rgb(186,35,222)" stroke-width="1.51"/><path d="M361,513L419,525L422,450Z" fill="rgb(109,31,228)" stroke="rgb(109,31,228)" stroke-width="1.51"/><path d="M484,427L557,442L537,345Z" fill="rgb(83,31,229)" stroke="rgb(83,31,229)" stroke-width="1.51"/><path d="M177,526L419,525L361,513Z" fill="rgb(123,31,227)" stroke="rgb(123,31,227)" stroke-width="1.51"/><path d="M419,525L501,483L422,450Z" fill="rgb(100,31,228)" stroke="rgb(100,31,228)" stroke-width="1.51"/><path d="M548,112L569,70L511,123Z" fill="rgb(157,33,225)" stroke="rgb(157,33,225)" stroke-width="1.51"/><path d="M611,137L548,112L585,216Z" fill="rgb(140,31,226)" stroke="rgb(140,31,226)" stroke-width="1.51"/><path d="M612,281L618,191L585,216Z" fill="rgb(119,31,227)" stroke="rgb(119,31,227)" stroke-width="1.51"/><path d="M618,191L611,137L585,216Z" fill="rgb(131,31,226)" stroke="rgb(131,31,226)" stroke-width="1.51"/><path d="M501,483L557,442L484,427Z" fill="rgb(86,31,229)" stroke="rgb(86,31,229)" stroke-width="1.51"/><path d="M557,442L612,360L537,345Z" fill="rgb(80,31,228)" stroke="rgb(80,31,228)" stroke-width="1.51"/><path d="M612,281L707,276L618,191Z" fill="rgb(114,31,227)" stroke="rgb(114,31,227)" stroke-width="1.51"/><path d="M106,478L177,526L161,414Z" fill="rgb(150,32,225)" stroke="rgb(150,32,225)" stroke-width="1.51"/><path d="M276,498L177,526L361,513Z" fill="rgb(131,31,226)" stroke="rgb(131,31,226)" stroke-width="1.51"/><path d="M87,403L106,478L161,414Z" fill="rgb(154,32,225)" stroke="rgb(154,32,225)" stroke-width="1.51"/><path d="M23,426L106,478L87,403Z" fill="rgb(160,33,224)" stroke="rgb(160,33,224)" stroke-width="1.51"/><path d="M107,40L58,28L98,121Z" fill="rgb(221,40,220)" stroke="rgb(221,40,220)" stroke-width="1.51"/><path d="M179,-75L115,-14L205,-9Z" fill="rgb(223,40,220)" stroke="rgb(223,40,220)" stroke-width="1.51"/><path d="M62,-10L58,28L107,40Z" fill="rgb(230,42,220)" stroke="rgb(230,42,220)" stroke-width="1.51"/><path d="M-18,142L-22,187L33,200Z" fill="rgb(211,38,221)" stroke="rgb(211,38,221)" stroke-width="1.51"/><path d="M-18,142L33,200L51,130Z" fill="rgb(212,39,221)" stroke="rgb(212,39,221)" stroke-width="1.51"/><path d="M33,200L-22,187L37,273Z" fill="rgb(202,37,221)" stroke="rgb(202,37,221)" stroke-width="1.51"/><path d="M-33,340L23,426L50,338Z" fill="rgb(174,34,223)" stroke="rgb(174,34,223)" stroke-width="1.51"/><path d="M50,338L23,426L87,403Z" fill="rgb(165,33,224)" stroke="rgb(165,33,224)" stroke-width="1.51"/><path d="M282,-121L179,-75L262,-42Z" fill="rgb(214,39,221)" stroke="rgb(214,39,221)" stroke-width="1.51"/><path d="M262,-42L179,-75L205,-9Z" fill="rgb(217,40,220)" stroke="rgb(217,40,220)" stroke-width="1.51"/><path d="M115,-14L62,-10L107,40Z" fill="rgb(230,42,219)" stroke="rgb(230,42,219)" stroke-width="1.51"/><path d="M557,442L625,404L612,360Z" fill="rgb(65,31,229)" stroke="rgb(65,31,229)" stroke-width="1.51"/><path d="M699,344L707,276L612,281Z" fill="rgb(100,31,228)" stroke="rgb(100,31,228)" stroke-width="1.51"/><path d="M622,490L625,404L557,442Z" fill="rgb(64,31,229)" stroke="rgb(64,31,229)" stroke-width="1.51"/><path d="M106,478L16,498L177,526Z" fill="rgb(156,32,225)" stroke="rgb(156,32,225)" stroke-width="1.51"/><path d="M-33,340L50,338L37,273Z" fill="rgb(184,35,223)" stroke="rgb(184,35,223)" stroke-width="1.51"/><path d="M-27,47L-18,142L51,130Z" fill="rgb(224,40,220)" stroke="rgb(224,40,220)" stroke-width="1.51"/><path d="M419,525L550,507L501,483Z" fill="rgb(92,31,228)" stroke="rgb(92,31,228)" stroke-width="1.51"/><path d="M501,483L550,507L557,442Z" fill="rgb(81,31,229)" stroke="rgb(81,31,229)" stroke-width="1.51"/><path d="M393,-33L333,-115L315,-29Z" fill="rgb(202,37,222)" stroke="rgb(202,37,222)" stroke-width="1.51"/><path d="M426,-126L333,-115L393,-33Z" fill="rgb(197,36,222)" stroke="rgb(197,36,222)" stroke-width="1.51"/><path d="M58,28L-27,47L51,130Z" fill="rgb(227,41,220)" stroke="rgb(227,41,220)" stroke-width="1.51"/><path d="M51,-80L62,-10L115,-14Z" fill="rgb(234,42,219)" stroke="rgb(234,42,219)" stroke-width="1.51"/><path d="M333,-115L282,-121L315,-29Z" fill="rgb(206,38,221)" stroke="rgb(206,38,221)" stroke-width="1.51"/><path d="M-56,262L-33,340L37,273Z" fill="rgb(190,35,222)" stroke="rgb(190,35,222)" stroke-width="1.51"/><path d="M611,137L618,22L569,70Z" fill="rgb(154,32,225)" stroke="rgb(154,32,225)" stroke-width="1.51"/><path d="M569,70L560,-43L464,27Z" fill="rgb(175,34,224)" stroke="rgb(175,34,224)" stroke-width="1.51"/><path d="M471,-17L426,-126L393,-33Z" fill="rgb(191,35,222)" stroke="rgb(191,35,222)" stroke-width="1.51"/><path d="M694,36L618,22L611,137Z" fill="rgb(157,32,225)" stroke="rgb(157,32,225)" stroke-width="1.51"/><path d="M715,172L611,137L618,191Z" fill="rgb(134,31,226)" stroke="rgb(134,31,226)" stroke-width="1.51"/><path d="M618,22L560,-43L569,70Z" fill="rgb(169,33,224)" stroke="rgb(169,33,224)" stroke-width="1.51"/><path d="M-95,198L-56,262L-22,187Z" fill="rgb(204,37,221)" stroke="rgb(204,37,221)" stroke-width="1.51"/><path d="M-22,187L-56,262L37,273Z" fill="rgb(200,37,222)" stroke="rgb(200,37,222)" stroke-width="1.51"/><path d="M491,-105L426,-126L471,-17Z" fill="rgb(187,35,223)" stroke="rgb(187,35,223)" stroke-width="1.51"/><path d="M333,-115L426,-126L282,-121Z" fill="rgb(202,37,222)" stroke="rgb(202,37,222)" stroke-width="1.51"/><path d="M560,-43L491,-105L471,-17Z" fill="rgb(181,35,223)" stroke="rgb(181,35,223)" stroke-width="1.51"/><path d="M699,344L612,281L612,360Z" fill="rgb(91,31,228)" stroke="rgb(91,31,228)" stroke-width="1.51"/><path d="M179,-75L140,-106L115,-14Z" fill="rgb(225,41,220)" stroke="rgb(225,41,220)" stroke-width="1.51"/><path d="M282,-121L140,-106L179,-75Z" fill="rgb(219,40,220)" stroke="rgb(219,40,220)" stroke-width="1.51"/><path d="M625,404L699,344L612,360Z" fill="rgb(77,31,229)" stroke="rgb(77,31,229)" stroke-width="1.51"/><path d="M550,507L622,490L557,442Z" fill="rgb(71,31,229)" stroke="rgb(71,31,229)" stroke-width="1.51"/><path d="M692,426L699,344L625,404Z" fill="rgb(68,31,229)" stroke="rgb(68,31,229)" stroke-width="1.51"/><path d="M-18,142L-95,198L-22,187Z" fill="rgb(211,38,221)" stroke="rgb(211,38,221)" stroke-width="1.51"/><path d="M-35,-18L-27,47L58,28Z" fill="rgb(239,43,219)" stroke="rgb(239,43,219)" stroke-width="1.51"/><path d="M-35,-18L58,28L62,-10Z" fill="rgb(239,43,219)" stroke="rgb(239,43,219)" stroke-width="1.51"/><path d="M23,426L16,498L106,478Z" fill="rgb(163,33,224)" stroke="rgb(163,33,224)" stroke-width="1.51"/><path d="M-24,450L16,498L23,426Z" fill="rgb(169,33,224)" stroke="rgb(169,33,224)" stroke-width="1.51"/><path d="M560,-43L567,-116L491,-105Z" fill="rgb(178,34,223)" stroke="rgb(178,34,223)" stroke-width="1.51"/><path d="M618,22L627,-11L560,-43Z" fill="rgb(170,33,224)" stroke="rgb(170,33,224)" stroke-width="1.51"/><path d="M694,36L627,-11L618,22Z" fill="rgb(167,33,224)" stroke="rgb(167,33,224)" stroke-width="1.51"/><path d="M-98,430L-24,450L-33,340Z" fill="rgb(170,33,224)" stroke="rgb(170,33,224)" stroke-width="1.51"/><path d="M-33,340L-24,450L23,426Z" fill="rgb(170,33,224)" stroke="rgb(170,33,224)" stroke-width="1.51"/><path d="M707,276L715,172L618,191Z" fill="rgb(123,31,227)" stroke="rgb(123,31,227)" stroke-width="1.51"/><path d="M715,172L710,123L611,137Z" fill="rgb(139,31,226)" stroke="rgb(139,31,226)" stroke-width="1.51"/><path d="M-126,108L-95,198L-18,142Z" fill="rgb(216,39,220)" stroke="rgb(216,39,220)" stroke-width="1.51"/><path d="M-56,262L-136,350L-33,340Z" fill="rgb(186,35,223)" stroke="rgb(186,35,223)" stroke-width="1.51"/><path d="M622,490L692,426L625,404Z" fill="rgb(64,31,229)" stroke="rgb(64,31,229)" stroke-width="1.51"/><path d="M699,344L715,488L707,276Z" fill="rgb(77,31,229)" stroke="rgb(77,31,229)" stroke-width="1.51"/><path d="M140,-106L51,-80L115,-14Z" fill="rgb(231,42,219)" stroke="rgb(231,42,219)" stroke-width="1.51"/><path d="M710,123L694,36L611,137Z" fill="rgb(150,32,225)" stroke="rgb(150,32,225)" stroke-width="1.51"/><path d="M491,-105L567,-116L426,-126Z" fill="rgb(183,35,223)" stroke="rgb(183,35,223)" stroke-width="1.51"/><path d="M642,-123L567,-116L560,-43Z" fill="rgb(171,33,224)" stroke="rgb(171,33,224)" stroke-width="1.51"/><path d="M642,-123L560,-43L627,-11Z" fill="rgb(170,33,224)" stroke="rgb(170,33,224)" stroke-width="1.51"/><path d="M51,-80L-35,-18L62,-10Z" fill="rgb(239,43,219)" stroke="rgb(239,43,219)" stroke-width="1.51"/><path d="M-106,52L-126,108L-18,142Z" fill="rgb(225,41,220)" stroke="rgb(225,41,220)" stroke-width="1.51"/><path d="M-126,108L-135,268L-95,198Z" fill="rgb(209,38,221)" stroke="rgb(209,38,221)" stroke-width="1.51"/><path d="M-95,198L-135,268L-56,262Z" fill="rgb(199,37,222)" stroke="rgb(199,37,222)" stroke-width="1.51"/><path d="M-24,450L-54,504L16,498Z" fill="rgb(170,33,224)" stroke="rgb(170,33,224)" stroke-width="1.51"/><path d="M16,498L-54,504L177,526Z" fill="rgb(163,33,224)" stroke="rgb(163,33,224)" stroke-width="1.51"/><path d="M-98,430L-54,504L-24,450Z" fill="rgb(170,33,224)" stroke="rgb(170,33,224)" stroke-width="1.51"/><path d="M-136,350L-98,430L-33,340Z" fill="rgb(175,34,223)" stroke="rgb(175,34,223)" stroke-width="1.51"/><path d="M-106,52L-18,142L-27,47Z" fill="rgb(228,41,219)" stroke="rgb(228,41,219)" stroke-width="1.51"/><path d="M-35,-18L-106,52L-27,47Z" fill="rgb(238,43,219)" stroke="rgb(238,43,219)" stroke-width="1.51"/><path d="M-135,268L-136,350L-56,262Z" fill="rgb(190,35,222)" stroke="rgb(190,35,222)" stroke-width="1.51"/><path d="M622,490L715,488L692,426Z" fill="rgb(64,31,229)" stroke="rgb(64,31,229)" stroke-width="1.51"/><path d="M692,426L715,488L699,344Z" fill="rgb(64,31,229)" stroke="rgb(64,31,229)" stroke-width="1.51"/><path d="M707,276L715,488L715,172Z" fill="rgb(96,31,228)" stroke="rgb(96,31,228)" stroke-width="1.51"/><path d="M550,507L715,488L622,490Z" fill="rgb(64,31,229)" stroke="rgb(64,31,229)" stroke-width="1.51"/><path d="M419,525L715,488L550,507Z" fill="rgb(75,31,229)" stroke="rgb(75,31,229)" stroke-width="1.51"/><path d="M-35,-18L-128,-4L-106,52Z" fill="rgb(241,43,218)" stroke="rgb(241,43,218)" stroke-width="1.51"/><path d="M51,-80L-25,-76L-35,-18Z" fill="rgb(242,44,218)" stroke="rgb(242,44,218)" stroke-width="1.51"/><path d="M-122,-112L-25,-76L51,-80Z" fill="rgb(242,44,218)" stroke="rgb(242,44,218)" stroke-width="1.51"/><path d="M691,-90L642,-123L627,-11Z" fill="rgb(170,33,224)" stroke="rgb(170,33,224)" stroke-width="1.51"/><path d="M567,-116L642,-123L426,-126Z" fill="rgb(177,34,223)" stroke="rgb(177,34,223)" stroke-width="1.51"/><path d="M694,36L715,-46L627,-11Z" fill="rgb(170,33,224)" stroke="rgb(170,33,224)" stroke-width="1.51"/><path d="M710,123L715,-46L694,36Z" fill="rgb(162,32,224)" stroke="rgb(162,32,224)" stroke-width="1.51"/><path d="M715,172L715,-46L710,123Z" fill="rgb(153,32,225)" stroke="rgb(153,32,225)" stroke-width="1.51"/><path d="M715,-46L691,-90L627,-11Z" fill="rgb(170,33,224)" stroke="rgb(170,33,224)" stroke-width="1.51"/><path d="M-106,52L-128,-4L-126,108Z" fill="rgb(233,42,219)" stroke="rgb(233,42,219)" stroke-width="1.51"/><path d="M-126,108L-128,-4L-135,268Z" fill="rgb(220,40,220)" stroke="rgb(220,40,220)" stroke-width="1.51"/><path d="M-122,-112L-128,-4L-35,-18Z" fill="rgb(242,44,218)" stroke="rgb(242,44,218)" stroke-width="1.51"/><path d="M-54,504L-125,511L177,526Z" fill="rgb(170,33,224)" stroke="rgb(170,33,224)" stroke-width="1.51"/><path d="M-98,430L-125,511L-54,504Z" fill="rgb(170,33,224)" stroke="rgb(170,33,224)" stroke-width="1.51"/><path d="M-136,350L-125,511L-98,430Z" fill="rgb(170,33,224)" stroke="rgb(170,33,224)" stroke-width="1.51"/><path d="M-25,-76L-122,-112L-35,-18Z" fill="rgb(242,44,218)" stroke="rgb(242,44,218)" stroke-width="1.51"/><path d="M140,-106L-122,-112L51,-80Z" fill="rgb(240,43,218)" stroke="rgb(240,43,218)" stroke-width="1.51"/><path d="M282,-121L-122,-112L140,-106Z" fill="rgb(231,42,219)" stroke="rgb(231,42,219)" stroke-width="1.51"/><path d="M426,-126L-122,-112L282,-121Z" fill="rgb(219,40,220)" stroke="rgb(219,40,220)" stroke-width="1.51"/></svg>